<mxfile host="app.diagrams.net" modified="2024-07-13T14:08:12.633Z" agent="Mozilla/5.0 (Macintosh; Intel Mac OS X 10_15_7) AppleWebKit/537.36 (KHTML, like Gecko) Chrome/126.0.0.0 Safari/537.36" version="24.6.5" etag="J18DFG7xBnqvC0nkco-n" type="github">
  <diagram name="Page-1" id="8V5RDRruW8-bpsH8PdYV">
    <mxGraphModel>
      <root>
        <mxCell id="0" />
        <mxCell id="1" parent="0" />
      </root>
    </mxGraphModel>
  </diagram>
</mxfile>
